<?xml version="1.0" encoding="UTF-8" standalone="no"?>
<svg
   xmlns:dc="http://purl.org/dc/elements/1.1/"
   xmlns:cc="http://creativecommons.org/ns#"
   xmlns:rdf="http://www.w3.org/1999/02/22-rdf-syntax-ns#"
   xmlns:svg="http://www.w3.org/2000/svg"
   xmlns="http://www.w3.org/2000/svg"
   xmlns:sodipodi="http://sodipodi.sourceforge.net/DTD/sodipodi-0.dtd"
   xmlns:inkscape="http://www.inkscape.org/namespaces/inkscape"
   id="Layer_4"
   width="134.1"
   height="32"
   version="1.1"
   sodipodi:docname="logo-monochrome.svg"
   inkscape:version="0.92.4 (5da689c313, 2019-01-14)">
  <metadata
     id="metadata4629">
    <rdf:RDF>
      <cc:Work
         rdf:about="">
        <dc:format>image/svg+xml</dc:format>
        <dc:type
           rdf:resource="http://purl.org/dc/dcmitype/StillImage" />
      </cc:Work>
    </rdf:RDF>
  </metadata>
  <defs
     id="defs4627" />
  <sodipodi:namedview
     pagecolor="#ffffff"
     bordercolor="#666666"
     borderopacity="1"
     objecttolerance="10"
     gridtolerance="10"
     guidetolerance="10"
     inkscape:pageopacity="0"
     inkscape:pageshadow="2"
     inkscape:window-width="1920"
     inkscape:window-height="1001"
     id="namedview4625"
     showgrid="false"
     inkscape:zoom="7.1501622"
     inkscape:cx="30.090915"
     inkscape:cy="16.518534"
     inkscape:window-x="-9"
     inkscape:window-y="-9"
     inkscape:window-maximized="1"
     inkscape:current-layer="Layer_4" />
  <style
     id="style4614">.st0{fill:#673ab7}</style>
  <g
     id="XMLID_261_">
    <path
       id="XMLID_259_"
       d="M5.2 0H0l14.8 25.6 2.6-4.5z"
       class="st0" />
    <path
       id="XMLID_258_"
       d="M19.3 14.6L10.9 0H5.8l11.9 20.6 1.7-2.9c.3-.5.4-1 .4-1.6 0-.5-.2-1.1-.5-1.5z"
       class="st0" />
    <path
       id="XMLID_257_"
       d="M9 16.7L.2 32h5.1l6.3-10.9z"
       class="st0" />
    <path
       id="XMLID_256_"
       d="M11.9 21.6L5.9 32h5.2l3.4-5.9z"
       class="st0" />
  </g>
  <g
     aria-label="GDG DevFest"
     style="font-style:normal;font-variant:normal;font-weight:normal;font-stretch:normal;font-size:17.2083149px;line-height:1.25;font-family:'Product Sans';-inkscape-font-specification:'Product Sans';letter-spacing:0px;word-spacing:0px;fill:#673ab7;fill-opacity:1;stroke:none;stroke-width:0.43020788"
     id="text4654">
    <path
       d="m 43.180763,7.7318884 q 0,2.5812476 -1.53154,4.1127876 -1.720831,1.824081 -4.525787,1.824081 -2.684497,0 -4.542995,-1.858498 -1.858498,-1.8584979 -1.858498,-4.5774117 0,-2.7189138 1.858498,-4.5774118 1.858498,-1.85849797 4.542995,-1.85849797 1.359457,0 2.564039,0.48183277 1.204582,0.4818329 1.978957,1.3594569 L 40.530683,3.773976 Q 39.962808,3.0856434 39.050768,2.7070605 38.155935,2.3112692 37.123436,2.3112692 q -2.013372,0 -3.407246,1.3938735 -1.376665,1.4110819 -1.376665,3.5277046 0,2.1166227 1.376665,3.5277047 1.393874,1.393873 3.407246,1.393873 1.84129,0 3.06308,-1.032499 1.221791,-1.032498 1.411082,-2.8393715 H 37.123436 V 6.8026394 h 5.971286 q 0.08604,0.4818328 0.08604,0.929249 z"
       style="fill:#673ab7;fill-opacity:1;stroke-width:0.43020788"
       id="path976" />
    <path
       d="M 45.10433,13.393424 V 1.0722706 h 3.768621 q 2.822164,0 4.525787,1.7036231 1.720832,1.7036232 1.720832,4.4569536 0,2.7705387 -1.720832,4.4741617 -1.703623,1.686415 -4.525787,1.686415 z M 46.687495,2.5866023 v 9.2924897 h 2.185456 q 2.15104,0 3.390038,-1.22179 1.238999,-1.2389987 1.238999,-3.4244547 0,-2.1682477 -1.238999,-3.4072463 -1.238998,-1.2389987 -3.390038,-1.2389987 z"
       style="fill:#673ab7;fill-opacity:1;stroke-width:0.43020788"
       id="path978" />
    <path
       d="m 68.858795,7.7318884 q 0,2.5812476 -1.53154,4.1127876 -1.720831,1.824081 -4.525787,1.824081 -2.684497,0 -4.542995,-1.858498 -1.858498,-1.8584979 -1.858498,-4.5774117 0,-2.7189138 1.858498,-4.5774118 1.858498,-1.85849797 4.542995,-1.85849797 1.359457,0 2.564039,0.48183277 1.204582,0.4818329 1.978956,1.3594569 L 66.208715,3.773976 Q 65.64084,3.0856434 64.7288,2.7070605 63.833967,2.3112692 62.801468,2.3112692 q -2.013373,0 -3.407246,1.3938735 -1.376665,1.4110819 -1.376665,3.5277046 0,2.1166227 1.376665,3.5277047 1.393873,1.393873 3.407246,1.393873 1.84129,0 3.06308,-1.032499 1.221791,-1.032498 1.411082,-2.8393715 H 62.801468 V 6.8026394 h 5.971286 q 0.08604,0.4818328 0.08604,0.929249 z"
       style="fill:#673ab7;fill-opacity:1;stroke-width:0.43020788"
       id="path980" />
    <path
       d="M 74.580292,13.393424 V 1.0722706 h 3.768621 q 2.822164,0 4.525787,1.7036231 1.720831,1.7036232 1.720831,4.4569536 0,2.7705387 -1.720831,4.4741617 -1.703623,1.686415 -4.525787,1.686415 z M 76.163457,2.5866023 v 9.2924897 h 2.185456 q 2.151039,0 3.390038,-1.22179 1.238999,-1.2389987 1.238999,-3.4244547 0,-2.1682477 -1.238999,-3.4072463 -1.238999,-1.2389987 -3.390038,-1.2389987 z"
       style="fill:#673ab7;fill-opacity:1;stroke-width:0.43020788"
       id="path982" />
    <path
       d="m 89.719847,13.668757 q -1.858498,0 -3.06308,-1.273415 -1.204582,-1.273416 -1.204582,-3.2179551 0,-1.9273313 1.170165,-3.2007466 1.170166,-1.2906236 2.994247,-1.2906236 1.875707,0 2.977039,1.2217904 1.11854,1.204582 1.11854,3.390038 l -0.01721,0.1720831 h -6.625201 q 0.03442,1.2389988 0.825999,1.9961648 0.791582,0.757166 1.892914,0.757166 1.514332,0 2.374748,-1.514332 l 1.411082,0.688333 q -0.567875,1.066915 -1.583165,1.669206 -0.998083,0.602291 -2.271498,0.602291 z M 87.190225,8.1620963 h 4.835536 Q 91.956928,7.2844722 91.303012,6.7165979 90.666304,6.1315151 89.582181,6.1315151 q -0.894833,0 -1.548749,0.5506661 -0.636707,0.5506661 -0.843207,1.4799151 z"
       style="fill:#673ab7;fill-opacity:1;stroke-width:0.43020788"
       id="path984" />
    <path
       d="M 99.070681,13.393424 H 97.487516 L 94.08027,4.9613497 h 1.720831 l 2.477998,6.5391593 h 0.03442 l 2.512415,-6.5391593 h 1.68641 z"
       style="fill:#673ab7;fill-opacity:1;stroke-width:0.43020788"
       id="path986" />
    <path
       d="m 105.40415,8.1104714 v 5.2829526 h -1.58317 V 1.0722706 h 7.19308 v 1.5143317 h -5.60991 v 4.043954 h 5.05924 v 1.4799151 z"
       style="fill:#673ab7;fill-opacity:1;stroke-width:0.43020788"
       id="path988" />
    <path
       d="m 115.8012,13.668757 q -1.8585,0 -3.06308,-1.273415 -1.20458,-1.273416 -1.20458,-3.2179551 0,-1.9273313 1.17016,-3.2007466 1.17017,-1.2906236 2.99425,-1.2906236 1.87571,0 2.97704,1.2217904 1.11854,1.204582 1.11854,3.390038 l -0.0172,0.1720831 h -6.6252 q 0.0344,1.2389988 0.826,1.9961648 0.79158,0.757166 1.89291,0.757166 1.51433,0 2.37475,-1.514332 l 1.41108,0.688333 q -0.56787,1.066915 -1.58316,1.669206 -0.99809,0.602291 -2.2715,0.602291 z m -2.52962,-5.5066607 h 4.83553 q -0.0688,-0.8776241 -0.72275,-1.4454984 -0.6367,-0.5850828 -1.72083,-0.5850828 -0.89483,0 -1.54875,0.5506661 -0.6367,0.5506661 -0.8432,1.4799151 z"
       style="fill:#673ab7;fill-opacity:1;stroke-width:0.43020788"
       id="path990" />
    <path
       d="m 127.77846,11.053093 q 0,1.101332 -0.96367,1.858498 -0.96367,0.757166 -2.42637,0.757166 -1.27342,0 -2.23708,-0.653916 -0.96367,-0.671124 -1.37667,-1.755248 l 1.41108,-0.602291 q 0.30975,0.757166 0.89484,1.187374 0.60229,0.412999 1.30783,0.412999 0.75716,0 1.2562,-0.326958 0.51625,-0.326958 0.51625,-0.774374 0,-0.808791 -1.239,-1.1873736 l -1.44549,-0.3613746 q -2.46079,-0.6194994 -2.46079,-2.3747475 0,-1.1529571 0.92925,-1.8412897 0.94645,-0.7055409 2.40916,-0.7055409 1.11854,0 2.01337,0.5334578 0.91204,0.5334577 1.27342,1.4282901 l -1.41108,0.5850827 q -0.24092,-0.5334578 -0.79159,-0.8259991 -0.53345,-0.3097497 -1.20458,-0.3097497 -0.6195,0 -1.11854,0.3097497 -0.48183,0.3097497 -0.48183,0.7571658 0,0.7227493 1.35946,1.0324989 l 1.27341,0.326958 q 2.51242,0.6194994 2.51242,2.5296221 z"
       style="fill:#673ab7;fill-opacity:1;stroke-width:0.43020788"
       id="path992" />
    <path
       d="m 132.39404,13.531091 q -1.0325,0 -1.72083,-0.636708 -0.67112,-0.636708 -0.68833,-1.772457 V 6.4068482 h -1.47992 V 4.9613497 h 1.47992 V 2.3801025 h 1.58316 v 2.5812472 h 2.065 v 1.4454985 h -2.065 v 4.1988288 q 0,0.843207 0.32696,1.152957 0.32696,0.292541 0.73996,0.292541 0.18929,0 0.36137,-0.03442 0.1893,-0.05162 0.34417,-0.120458 l 0.49904,1.411081 q -0.6195,0.223709 -1.4455,0.223709 z"
       style="fill:#673ab7;fill-opacity:1;stroke-width:0.43020788"
       id="path994" />
  </g>
  <g
     aria-label="Season 2019"
     style="font-style:normal;font-variant:normal;font-weight:normal;font-stretch:normal;font-size:17.32321548px;line-height:1.25;font-family:'Product Sans';-inkscape-font-specification:'Product Sans';letter-spacing:0px;word-spacing:0px;fill:#673ab7;fill-opacity:1;stroke:none;stroke-width:0.4330804"
     id="text4662">
    <path
       d="m 39.098053,26.776843 q 0,1.628382 -1.195302,2.615805 -1.212625,0.9701 -2.944947,0.9701 -1.541766,0 -2.719744,-0.900807 -1.177979,-0.900807 -1.628383,-2.459896 l 1.524443,-0.623636 q 0.155909,0.554343 0.433081,1.004746 0.277171,0.450404 0.640959,0.779545 0.38111,0.311818 0.831514,0.502373 0.450404,0.173232 0.952777,0.173232 1.091362,0 1.784291,-0.554342 0.692929,-0.571667 0.692929,-1.50712 0,-0.779545 -0.571666,-1.333888 -0.53702,-0.537019 -2.009493,-1.039393 -1.489797,-0.537019 -1.853585,-0.727575 -1.974846,-1.004746 -1.974846,-2.96227 0,-1.368534 1.091362,-2.338634 1.108686,-0.9701 2.719745,-0.9701 1.420504,0 2.459897,0.727575 1.039393,0.710252 1.385857,1.784292 l -1.489796,0.623635 q -0.207879,-0.692928 -0.831515,-1.143332 -0.606312,-0.467727 -1.489796,-0.467727 -0.935454,0 -1.576413,0.519697 -0.640959,0.48505 -0.640959,1.264594 0,0.640959 0.502373,1.108686 0.554343,0.467727 2.407927,1.108686 1.888231,0.640959 2.685099,1.576413 0.814191,0.91813 0.814191,2.269341 z"
       style="fill:#673ab7;fill-opacity:1;stroke-width:0.4330804"
       id="path955" />
    <path
       d="m 44.550265,30.362748 q -1.870908,0 -3.083533,-1.281917 -1.212625,-1.281918 -1.212625,-3.239442 0,-1.9402 1.177979,-3.222118 1.177979,-1.299241 3.014239,-1.299241 1.888231,0 2.996917,1.229948 1.126009,1.212625 1.126009,3.412674 l -0.01732,0.173232 H 41.88249 q 0.03465,1.247271 0.831514,2.009493 0.796868,0.762221 1.905554,0.762221 1.524443,0 2.390603,-1.524443 l 1.420504,0.692929 q -0.571666,1.074039 -1.593736,1.680352 -1.004746,0.606312 -2.286664,0.606312 z M 42.003752,24.81932 h 4.867824 q -0.06929,-0.883484 -0.727575,-1.455151 -0.640959,-0.588989 -1.732322,-0.588989 -0.900807,0 -1.559089,0.554343 -0.640959,0.554343 -0.848838,1.489797 z"
       style="fill:#673ab7;fill-opacity:1;stroke-width:0.4330804"
       id="path957" />
    <path
       d="m 51.271943,27.487095 q 0,0.623635 0.519697,1.039393 0.537019,0.415757 1.247271,0.415757 1.004747,0 1.784291,-0.744898 0.796868,-0.744899 0.796868,-1.749645 -0.744898,-0.58899 -2.078786,-0.58899 -0.9701,0 -1.628382,0.467727 -0.640959,0.467727 -0.640959,1.160656 z m 2.061463,-6.167065 q 1.766968,0 2.789038,0.952777 1.022069,0.935453 1.022069,2.581159 v 5.231611 H 55.62007 v -1.177979 h -0.06929 q -0.987423,1.45515 -2.633128,1.45515 -1.403181,0 -2.355958,-0.831514 -0.935453,-0.831514 -0.935453,-2.078786 0,-1.316564 0.987423,-2.096109 1.004746,-0.779545 2.667775,-0.779545 1.420504,0 2.338634,0.519697 v -0.363788 q 0,-0.831514 -0.658282,-1.40318 -0.658282,-0.588989 -1.541766,-0.588989 -1.333888,0 -2.113432,1.126009 l -1.403181,-0.883484 q 1.160656,-1.663029 3.429997,-1.663029 z"
       style="fill:#673ab7;fill-opacity:1;stroke-width:0.4330804"
       id="path959" />
    <path
       d="m 65.33677,27.72962 q 0,1.108685 -0.9701,1.870907 -0.9701,0.762221 -2.442573,0.762221 -1.281918,0 -2.252018,-0.658282 -0.9701,-0.675605 -1.385858,-1.766968 l 1.420504,-0.606312 q 0.311818,0.762221 0.900807,1.195302 0.606313,0.415757 1.316565,0.415757 0.762221,0 1.264594,-0.329141 0.519697,-0.329141 0.519697,-0.779545 0,-0.814191 -1.247272,-1.195302 l -1.45515,-0.363787 q -2.477219,-0.623636 -2.477219,-2.390604 0,-1.160656 0.935453,-1.853584 0.952777,-0.710252 2.42525,-0.710252 1.126009,0 2.026817,0.53702 0.91813,0.537019 1.281917,1.437827 l -1.420503,0.588989 q -0.242525,-0.53702 -0.796868,-0.831514 -0.53702,-0.311818 -1.212625,-0.311818 -0.623636,0 -1.126009,0.311818 -0.48505,0.311817 -0.48505,0.762221 0,0.727575 1.368534,1.039393 l 1.281918,0.329141 q 2.529189,0.623636 2.529189,2.546513 z"
       style="fill:#673ab7;fill-opacity:1;stroke-width:0.4330804"
       id="path961" />
    <path
       d="m 66.340435,25.841389 q 0,-1.957523 1.229948,-3.239441 1.247272,-1.281918 3.135502,-1.281918 1.888231,0 3.118179,1.281918 1.247271,1.281918 1.247271,3.239441 0,1.974847 -1.247271,3.239442 -1.229948,1.281917 -3.118179,1.281917 -1.88823,0 -3.135502,-1.281917 -1.229948,-1.281918 -1.229948,-3.239442 z m 1.593736,0 q 0,1.368534 0.796868,2.217372 0.796868,0.848837 1.974846,0.848837 1.177979,0 1.974847,-0.848837 0.796868,-0.848838 0.796868,-2.217372 0,-1.351211 -0.796868,-2.200048 -0.814191,-0.866161 -1.974847,-0.866161 -1.160655,0 -1.974846,0.866161 -0.796868,0.848837 -0.796868,2.200048 z"
       style="fill:#673ab7;fill-opacity:1;stroke-width:0.4330804"
       id="path963" />
    <path
       d="m 76.366787,21.597201 h 1.524443 v 1.177979 h 0.06929 q 0.363788,-0.623636 1.108686,-1.039393 0.762222,-0.415757 1.576413,-0.415757 1.559089,0 2.390604,0.900807 0.848837,0.883484 0.848837,2.52919 v 5.33555 h -1.593736 v -5.231611 q -0.05197,-2.078786 -2.096109,-2.078786 -0.952777,0 -1.593736,0.779545 -0.640959,0.762221 -0.640959,1.836261 v 4.694591 h -1.593735 z"
       style="fill:#673ab7;fill-opacity:1;stroke-width:0.4330804"
       id="path965" />
    <path
       d="m 96.871789,28.561134 v 1.524443 h -7.552922 v -1.593736 l 3.066209,-3.100855 q 1.541766,-1.576413 2.130756,-2.355958 0.588989,-0.796868 0.588989,-1.663028 0,-0.779545 -0.606313,-1.333888 -0.606312,-0.554343 -1.559089,-0.554343 -0.814191,0 -1.40318,0.48505 -0.58899,0.48505 -0.762222,1.177979 l -1.45515,-0.58899 q 0.346464,-1.091362 1.333888,-1.83626 0.987423,-0.762222 2.321311,-0.762222 1.611059,0 2.685098,0.987423 1.074039,0.987424 1.074039,2.425251 0,1.714998 -1.88823,3.707168 l -3.464643,3.481966 z"
       style="fill:#673ab7;fill-opacity:1;stroke-width:0.4330804"
       id="path967" />
    <path
       d="m 98.38811,24.161037 q 0,-2.702421 1.333888,-4.452066 1.333892,-1.749645 3.429992,-1.749645 2.09611,0 3.43,1.766968 1.33389,1.749645 1.33389,4.434743 0,2.667776 -1.33389,4.452067 -1.33389,1.749644 -3.43,1.749644 -2.0961,0 -3.429992,-1.749644 -1.333888,-1.784291 -1.333888,-4.452067 z m 7.89939,0 q 0,-2.044139 -0.86616,-3.360703 -0.84884,-1.316565 -2.26935,-1.316565 -1.4205,0 -2.26934,1.316565 -0.86616,1.316564 -0.86616,3.360703 0,2.04414 0.86616,3.378027 0.84884,1.299241 2.26934,1.299241 1.42051,0 2.26935,-1.316564 0.86616,-1.333887 0.86616,-3.360704 z"
       style="fill:#673ab7;fill-opacity:1;stroke-width:0.4330804"
       id="path969" />
    <path
       d="m 113.71753,18.236498 v 11.849079 h -1.59374 v -9.874233 l -2.30398,1.004747 -0.60632,-1.351211 3.48197,-1.628382 z"
       style="fill:#673ab7;fill-opacity:1;stroke-width:0.4330804"
       id="path971" />
    <path
       d="m 119.58604,25.754773 q -1.4205,0 -2.58115,-1.126009 -1.12601,-1.160655 -1.12601,-2.702421 0,-1.61106 1.21262,-2.771715 1.21263,-1.195302 2.84101,-1.195302 1.715,0 2.89298,1.177979 1.17797,1.177978 1.17797,2.789038 0,1.437826 -1.16065,3.274087 l -3.44732,5.162318 -1.28192,-0.883484 2.92762,-4.053632 -0.0346,-0.03465 q -0.55435,0.363787 -1.42051,0.363787 z m 2.80637,-3.845754 q 0,-1.004746 -0.72758,-1.714998 -0.71025,-0.710252 -1.73232,-0.710252 -1.02207,0 -1.73232,0.710252 -0.71025,0.710252 -0.71025,1.714998 0,1.004747 0.71025,1.714999 0.7449,0.710251 1.73232,0.710251 0.98742,0 1.73232,-0.710251 0.72758,-0.692929 0.72758,-1.714999 z"
       style="fill:#673ab7;fill-opacity:1;stroke-width:0.4330804"
       id="path973" />
  </g>
</svg>
