<?xml version="1.0" encoding="UTF-8" standalone="no"?>
<svg
   xmlns:dc="http://purl.org/dc/elements/1.1/"
   xmlns:cc="http://creativecommons.org/ns#"
   xmlns:rdf="http://www.w3.org/1999/02/22-rdf-syntax-ns#"
   xmlns:svg="http://www.w3.org/2000/svg"
   xmlns="http://www.w3.org/2000/svg"
   xmlns:sodipodi="http://sodipodi.sourceforge.net/DTD/sodipodi-0.dtd"
   xmlns:inkscape="http://www.inkscape.org/namespaces/inkscape"
   id="Layer_4"
   viewBox="95 151 1089.3 200"
   version="1.1"
   sodipodi:docname="organizer-logo.svg"
   inkscape:version="0.92.4 (5da689c313, 2019-01-14)">
  <metadata
     id="metadata4706">
    <rdf:RDF>
      <cc:Work
         rdf:about="">
        <dc:format>image/svg+xml</dc:format>
        <dc:type
           rdf:resource="http://purl.org/dc/dcmitype/StillImage" />
      </cc:Work>
    </rdf:RDF>
  </metadata>
  <defs
     id="defs4704" />
  <sodipodi:namedview
     pagecolor="#ffffff"
     bordercolor="#666666"
     borderopacity="1"
     objecttolerance="10"
     gridtolerance="10"
     guidetolerance="10"
     inkscape:pageopacity="0"
     inkscape:pageshadow="2"
     inkscape:window-width="1920"
     inkscape:window-height="1001"
     id="namedview4702"
     showgrid="false"
     inkscape:zoom="0.88023203"
     inkscape:cx="233.63398"
     inkscape:cy="-79.505421"
     inkscape:window-x="-9"
     inkscape:window-y="-9"
     inkscape:window-maximized="1"
     inkscape:current-layer="Layer_4" />
  <style
     id="style4686">.st0{fill:#757575}</style>
  <g
     id="XMLID_261_"
     transform="matrix(0.78666278,0,0,0.78666278,129.54303,52.796102)">
    <path
       id="XMLID_259_"
       class="st0"
       d="M 127.3,151 H 95 l 92.3,160 16.2,-28 z"
       inkscape:connector-curvature="0"
       style="fill:#757575" />
    <path
       id="XMLID_258_"
       class="st0"
       d="m 215.9,242 -52.6,-91 h -32.2 l 74.3,128.8 10.5,-18.2 c 1.7,-2.8 2.8,-6.2 2.8,-9.8 -0.1,-3.6 -1.1,-6.9 -2.8,-9.8 z"
       inkscape:connector-curvature="0"
       style="fill:#757575" />
    <path
       id="XMLID_257_"
       class="st0"
       d="M 151.3,255.1 95.9,351 h 32.3 l 39.3,-68 z"
       inkscape:connector-curvature="0"
       style="fill:#757575" />
    <path
       id="XMLID_256_"
       class="st0"
       d="M 169.3,286.3 132,351 h 32.2 l 21.3,-36.8 z"
       inkscape:connector-curvature="0"
       style="fill:#757575" />
  </g>
  <g
     id="XMLID_261_-9"
     transform="matrix(-0.80723818,0,0,0.78666278,272.86135,52.554881)">
    <path
       inkscape:connector-curvature="0"
       id="XMLID_259_-0"
       class="st0"
       d="M 127.3,151 H 95 l 92.3,160 16.2,-28 z"
       style="fill:#757575" />
    <path
       inkscape:connector-curvature="0"
       id="XMLID_258_-6"
       class="st0"
       d="m 215.9,242 -52.6,-91 h -32.2 l 74.3,128.8 10.5,-18.2 c 1.7,-2.8 2.8,-6.2 2.8,-9.8 -0.1,-3.6 -1.1,-6.9 -2.8,-9.8 z"
       style="fill:#757575" />
    <path
       inkscape:connector-curvature="0"
       id="XMLID_257_-7"
       class="st0"
       d="M 151.3,255.1 95.9,351 h 32.3 l 39.3,-68 z"
       style="fill:#757575" />
    <path
       inkscape:connector-curvature="0"
       id="XMLID_256_-1"
       class="st0"
       d="M 169.3,286.3 132,351 h 32.2 l 21.3,-36.8 z"
       style="fill:#757575" />
  </g>
  <text
     xml:space="preserve"
     style="font-style:normal;font-variant:normal;font-weight:normal;font-stretch:normal;font-size:170.66534424px;line-height:1.25;font-family:'Product Sans';-inkscape-font-specification:'Product Sans';letter-spacing:0px;word-spacing:0px;fill:#757575;fill-opacity:1;stroke:none;stroke-width:4.26663351"
     x="346.99899"
     y="313.38303"
     id="text4737"><tspan
       sodipodi:role="line"
       id="tspan4735"
       x="346.99899"
       y="313.38303"
       style="fill:#757575;fill-opacity:1;stroke-width:4.26663351">GDG Porto</tspan></text>
</svg>
