<?xml version="1.0" encoding="UTF-8" standalone="no"?>
<svg
   xmlns:dc="http://purl.org/dc/elements/1.1/"
   xmlns:cc="http://creativecommons.org/ns#"
   xmlns:rdf="http://www.w3.org/1999/02/22-rdf-syntax-ns#"
   xmlns:svg="http://www.w3.org/2000/svg"
   xmlns="http://www.w3.org/2000/svg"
   xmlns:sodipodi="http://sodipodi.sourceforge.net/DTD/sodipodi-0.dtd"
   xmlns:inkscape="http://www.inkscape.org/namespaces/inkscape"
   id="Layer_4"
   viewBox="95 151 1089.3 200"
   version="1.1"
   sodipodi:docname="organizer-logo.svg"
   inkscape:version="0.92.4 (5da689c313, 2019-01-14)">
  <metadata
     id="metadata4706">
    <rdf:RDF>
      <cc:Work
         rdf:about="">
        <dc:format>image/svg+xml</dc:format>
        <dc:type
           rdf:resource="http://purl.org/dc/dcmitype/StillImage" />
      </cc:Work>
    </rdf:RDF>
  </metadata>
  <defs
     id="defs4704" />
  <sodipodi:namedview
     pagecolor="#ffffff"
     bordercolor="#666666"
     borderopacity="1"
     objecttolerance="10"
     gridtolerance="10"
     guidetolerance="10"
     inkscape:pageopacity="0"
     inkscape:pageshadow="2"
     inkscape:window-width="1920"
     inkscape:window-height="1001"
     id="namedview4702"
     showgrid="false"
     inkscape:zoom="0.88023203"
     inkscape:cx="486.40824"
     inkscape:cy="-79.505421"
     inkscape:window-x="-9"
     inkscape:window-y="-9"
     inkscape:window-maximized="1"
     inkscape:current-layer="Layer_4" />
  <style
     id="style4686">.st0{fill:#757575}</style>
  <g
     id="XMLID_261_"
     transform="matrix(0.78666278,0,0,0.78666278,129.54303,52.796102)">
    <path
       id="XMLID_259_"
       class="st0"
       d="M 127.3,151 H 95 l 92.3,160 16.2,-28 z"
       inkscape:connector-curvature="0"
       style="fill:#757575" />
    <path
       id="XMLID_258_"
       class="st0"
       d="m 215.9,242 -52.6,-91 h -32.2 l 74.3,128.8 10.5,-18.2 c 1.7,-2.8 2.8,-6.2 2.8,-9.8 -0.1,-3.6 -1.1,-6.9 -2.8,-9.8 z"
       inkscape:connector-curvature="0"
       style="fill:#757575" />
    <path
       id="XMLID_257_"
       class="st0"
       d="M 151.3,255.1 95.9,351 h 32.3 l 39.3,-68 z"
       inkscape:connector-curvature="0"
       style="fill:#757575" />
    <path
       id="XMLID_256_"
       class="st0"
       d="M 169.3,286.3 132,351 h 32.2 l 21.3,-36.8 z"
       inkscape:connector-curvature="0"
       style="fill:#757575" />
  </g>
  <g
     id="XMLID_261_-9"
     transform="matrix(-0.80723818,0,0,0.78666278,272.86135,52.554881)">
    <path
       inkscape:connector-curvature="0"
       id="XMLID_259_-0"
       class="st0"
       d="M 127.3,151 H 95 l 92.3,160 16.2,-28 z"
       style="fill:#757575" />
    <path
       inkscape:connector-curvature="0"
       id="XMLID_258_-6"
       class="st0"
       d="m 215.9,242 -52.6,-91 h -32.2 l 74.3,128.8 10.5,-18.2 c 1.7,-2.8 2.8,-6.2 2.8,-9.8 -0.1,-3.6 -1.1,-6.9 -2.8,-9.8 z"
       style="fill:#757575" />
    <path
       inkscape:connector-curvature="0"
       id="XMLID_257_-7"
       class="st0"
       d="M 151.3,255.1 95.9,351 h 32.3 l 39.3,-68 z"
       style="fill:#757575" />
    <path
       inkscape:connector-curvature="0"
       id="XMLID_256_-1"
       class="st0"
       d="M 169.3,286.3 132,351 h 32.2 l 21.3,-36.8 z"
       style="fill:#757575" />
  </g>
  <g
     aria-label="GDG Porto"
     style="font-style:normal;font-variant:normal;font-weight:normal;font-stretch:normal;font-size:170.66534424px;line-height:1.25;font-family:'Product Sans';-inkscape-font-specification:'Product Sans';letter-spacing:0px;word-spacing:0px;fill:#757575;fill-opacity:1;stroke:none;stroke-width:4.26663351"
     id="text4737">
    <path
       d="m 476.87532,257.23413 q 0,25.5998 -15.18922,40.78902 -17.06653,18.09052 -44.88498,18.09052 -26.62379,0 -45.05565,-18.43186 -18.43186,-18.43185 -18.43186,-45.39698 0,-26.96512 18.43186,-45.39698 18.43186,-18.43186 45.05565,-18.43186 13.48256,0 25.42914,4.77863 11.94657,4.77863 19.62651,13.48257 l -11.26391,11.26391 q -5.63196,-6.82662 -14.67722,-10.58125 -8.8746,-3.92531 -19.11452,-3.92531 -19.96785,0 -33.79174,13.8239 -13.65323,13.99456 -13.65323,34.98639 0,20.99184 13.65323,34.9864 13.82389,13.82389 33.79174,13.82389 18.26119,0 30.37843,-10.23992 12.11724,-10.23992 13.99456,-28.15978 H 416.80112 V 248.0182 h 59.22087 q 0.85333,4.77863 0.85333,9.21593 z"
       style="fill:#757575;fill-opacity:1;stroke-width:4.26663351"
       id="path1557" />
    <path
       d="M 495.9525,313.38303 V 191.18664 h 37.37571 q 27.98912,0 44.88499,16.89587 17.06653,16.89587 17.06653,44.20232 0,27.47712 -17.06653,44.37299 -16.89587,16.72521 -44.88499,16.72521 z m 15.70121,-107.17784 v 92.15929 h 21.6745 q 21.33317,0 33.62107,-12.11724 12.28791,-12.28791 12.28791,-33.96241 0,-21.50383 -12.28791,-33.79174 -12.2879,-12.2879 -33.62107,-12.2879 z"
       style="fill:#757575;fill-opacity:1;stroke-width:4.26663351"
       id="path1559" />
    <path
       d="m 731.54001,257.23413 q 0,25.5998 -15.18922,40.78902 -17.06653,18.09052 -44.88498,18.09052 -26.6238,0 -45.05565,-18.43186 -18.43186,-18.43185 -18.43186,-45.39698 0,-26.96512 18.43186,-45.39698 18.43185,-18.43186 45.05565,-18.43186 13.48256,0 25.42913,4.77863 11.94658,4.77863 19.62652,13.48257 l -11.26392,11.26391 q -5.63195,-6.82662 -14.67721,-10.58125 -8.8746,-3.92531 -19.11452,-3.92531 -19.96785,0 -33.79174,13.8239 -13.65323,13.99456 -13.65323,34.98639 0,20.99184 13.65323,34.9864 13.82389,13.82389 33.79174,13.82389 18.26119,0 30.37843,-10.23992 12.11724,-10.23992 13.99456,-28.15978 H 671.46581 V 248.0182 h 59.22087 q 0.85333,4.77863 0.85333,9.21593 z"
       style="fill:#757575;fill-opacity:1;stroke-width:4.26663351"
       id="path1561" />
    <path
       d="m 803.98478,263.89008 v 49.49295 H 788.28357 V 191.18664 h 41.64235 q 15.87187,0 26.96512,10.58125 11.26391,10.58125 11.26391,25.77047 0,15.53054 -11.26391,25.94113 -10.92258,10.41059 -26.96512,10.41059 z m 0,-57.68489 v 42.66634 h 26.28247 q 9.38659,0 15.53054,-6.31462 6.31462,-6.31462 6.31462,-15.01855 0,-8.53327 -6.31462,-14.84789 -6.14395,-6.48528 -15.53054,-6.48528 z"
       style="fill:#757575;fill-opacity:1;stroke-width:4.26663351"
       id="path1563" />
    <path
       d="m 871.10691,271.57002 q 0,-19.28519 12.11724,-31.91442 12.2879,-12.62924 30.89042,-12.62924 18.60253,0 30.71977,12.62924 12.2879,12.62923 12.2879,31.91442 0,19.45585 -12.2879,31.91442 -12.11724,12.62923 -30.71977,12.62923 -18.60252,0 -30.89042,-12.62923 -12.11724,-12.62924 -12.11724,-31.91442 z m 15.70121,0 q 0,13.48256 7.8506,21.84516 7.85061,8.3626 19.45585,8.3626 11.60525,0 19.45585,-8.3626 7.85061,-8.3626 7.85061,-21.84516 0,-13.3119 -7.85061,-21.6745 -8.02127,-8.53327 -19.45585,-8.53327 -11.43457,0 -19.45585,8.53327 -7.8506,8.3626 -7.8506,21.6745 z"
       style="fill:#757575;fill-opacity:1;stroke-width:4.26663351"
       id="path1565" />
    <path
       d="m 1067.8467,314.74835 q -10.2399,0 -17.0665,-6.31462 -6.656,-6.31462 -6.8266,-17.57853 v -46.7623 h -14.6773 v -14.33589 h 14.6773 v -25.5998 h 15.7012 v 25.5998 h 20.4798 v 14.33589 h -20.4798 v 41.64234 q 0,8.3626 3.2426,11.43458 3.2427,2.90131 7.3386,2.90131 1.8773,0 3.584,-0.34133 1.8773,-0.512 3.4133,-1.19466 l 4.9493,13.99456 q -6.144,2.21865 -14.3359,2.21865 z m -97.9619,-84.99134 h 15.01855 v 13.65322 h 0.68267 q 6.99728,-16.04254 28.84248,-16.04254 l 3.2426,0.34133 v 16.38388 l -6.9973,-0.68267 q -10.92256,0 -18.0905,6.82662 -6.99728,6.65595 -6.99728,17.06653 v 46.07965 H 969.8848 Z"
       style="fill:#757575;fill-opacity:1;stroke-width:4.26663351"
       id="path1567" />
    <path
       d="m 1089.4386,271.57002 q 0,-19.28519 12.1172,-31.91442 12.2879,-12.62924 30.8904,-12.62924 18.6026,0 30.7198,12.62924 12.2879,12.62923 12.2879,31.91442 0,19.45585 -12.2879,31.91442 -12.1172,12.62923 -30.7198,12.62923 -18.6025,0 -30.8904,-12.62923 -12.1172,-12.62924 -12.1172,-31.91442 z m 15.7012,0 q 0,13.48256 7.8506,21.84516 7.8506,8.3626 19.4558,8.3626 11.6053,0 19.4559,-8.3626 7.8506,-8.3626 7.8506,-21.84516 0,-13.3119 -7.8506,-21.6745 -8.0213,-8.53327 -19.4559,-8.53327 -11.4345,0 -19.4558,8.53327 -7.8506,8.3626 -7.8506,21.6745 z"
       style="fill:#757575;fill-opacity:1;stroke-width:4.26663351"
       id="path1569" />
  </g>
</svg>
